<svg width="36" height="40" viewBox="0 0 36 40" fill="none" xmlns="http://www.w3.org/2000/svg">
<path d="M29.2117 10.428C29.2117 8.08907 28.3443 5.93361 26.8886 4.21355L28.8854 0.768419C29.0288 0.521482 28.9396 0.21006 28.6934 0.0685961C28.4421 -0.0733681 28.1234 0.0121103 27.9825 0.259548L26.1484 3.42375C24.102 1.45475 21.2029 0.226556 17.9901 0.226556C14.7738 0.226556 11.8726 1.45725 9.82824 3.42875L7.99007 0.260547C7.8482 0.01311 7.52799 -0.0723681 7.28175 0.0690961C7.03095 0.21006 6.94381 0.522482 7.0877 0.769419L9.08699 4.21905C7.63338 5.93811 6.77002 8.09157 6.77002 10.428H29.2117ZM22.2856 4.99885C22.7826 4.99885 23.1844 5.39525 23.1844 5.88513C23.1844 6.3745 22.7826 6.7714 22.2856 6.7714C21.7896 6.7714 21.3878 6.374 21.3878 5.88513C21.3878 5.39575 21.7891 4.99885 22.2856 4.99885ZM13.7047 4.99885C14.2018 4.99885 14.6041 5.39525 14.6041 5.88513C14.6041 6.3745 14.2023 6.7714 13.7047 6.7714C13.2087 6.7714 12.8069 6.374 12.8069 5.88513C12.8069 5.39575 13.2092 4.99885 13.7047 4.99885Z" fill="white"/>
<path d="M30.9536 26.4972H30.9632C31.0595 27.6829 32.1493 28.6177 33.4778 28.6177C34.8053 28.6177 35.8951 27.6829 35.9929 26.4972H36V15.436H35.9959C36 15.3935 36 15.351 36 15.3086C36 14.0424 34.8706 13.0151 33.4778 13.0151C32.085 13.0151 30.9551 14.0424 30.9551 15.3086C30.9551 15.35 30.9582 15.393 30.9602 15.436H30.9551V26.4972H30.9536Z" fill="white"/>
<path d="M0 26.5036H0.00608001C0.103866 27.6898 1.19218 28.6246 2.52065 28.6246C3.85115 28.6246 4.93744 27.6898 5.03624 26.5036H5.04232V15.4419H5.0408C5.04435 15.3994 5.04435 15.3559 5.04435 15.3149C5.04435 14.0473 3.91499 13.02 2.52268 13.02C1.12986 13.02 0 14.0483 0 15.3149C0 15.3559 -4.25153e-07 15.3994 0.00253289 15.4419H0V26.5036Z" fill="white"/>
<path d="M29.3323 11.794C29.3323 11.62 29.1899 11.4766 29.0111 11.4766H6.96968C6.79083 11.4766 6.64795 11.62 6.64795 11.794V28.3053C6.64795 28.3518 6.65758 28.3938 6.6743 28.4333C6.65758 28.5442 6.64846 28.6567 6.64846 28.7702C6.64846 29.9054 7.55285 30.8467 8.7425 31.0301V31.0646H9.73303V37.8789H9.74164C9.83993 39.0651 10.9277 39.9988 12.2572 39.9988C13.5852 39.9988 14.6745 39.0651 14.7713 37.8789H14.7794V31.0656H21.2039V37.8794H21.2135C21.3113 39.0666 22.3981 39.9998 23.7271 39.9998C25.055 39.9998 26.1459 39.0666 26.2417 37.8794H26.2508V31.0656H27.2327V31.0321C28.4254 30.8517 29.3333 29.9084 29.3333 28.7712C29.3333 28.6577 29.3267 28.5452 29.308 28.4338C29.3247 28.3948 29.3333 28.3538 29.3333 28.3068V11.794H29.3323ZM23.1495 21.454L18.1426 25.5985L18.0241 25.738L17.9992 25.718L17.9739 25.738L17.8554 25.5985L12.8485 21.454C11.2064 20.0939 10.9921 17.678 12.3702 16.0579C13.7488 14.4373 16.197 14.2264 17.8391 15.586L17.9992 15.7185L18.1594 15.586C19.8009 14.2264 22.2497 14.4378 23.6278 16.0579C25.0064 17.678 24.7916 20.0939 23.1495 21.454Z" fill="white"/>
<rect x="10.6401" y="13.4966" width="15.1999" height="14.9962" fill="white"/>
</svg>
