<svg width="33" height="40" viewBox="0 0 33 40" fill="none" xmlns="http://www.w3.org/2000/svg">
<path d="M24.367 0C19.9602 1.50376 16.526 3.00752 17.0156 9.5238C21.4224 8.52129 25.3462 6.01503 24.367 0ZM10.3714 9.04761C6.12857 9.04761 0 12.8571 0 20C0 30 6.6 40 10.3714 40C13.2 40 15.5571 38.0952 17.4429 38.0952C19.3286 38.0952 21.2143 40 24.0429 40C27.8143 40 32.0571 34.2857 33 29.0476C29.7 26.6667 27.3429 25.2381 27.3429 20.9524C27.3429 18.0952 29.7 15.2381 32.5286 12.8571C31.1143 10.9524 28.2857 9.04761 25.4571 9.04761C22.6286 9.04761 19.5869 11.3081 17.4429 11.4286C15.5571 11.4286 13.2 9.04761 10.3714 9.04761Z" fill="white"/>
</svg>
