<svg width="32" height="32" viewBox="0 0 32 32" fill="none" xmlns="http://www.w3.org/2000/svg">
<path d="M23.5 1H8.5C4.35786 1 1 4.35786 1 8.5V23.5C1 27.6421 4.35786 31 8.5 31H23.5C27.6421 31 31 27.6421 31 23.5V8.5C31 4.35786 27.6421 1 23.5 1Z" fill="white" stroke="white" stroke-width="2" stroke-linecap="round" stroke-linejoin="round"/>
<path d="M21.9996 15.055C22.1847 16.3033 21.9714 17.5783 21.3902 18.6985C20.8089 19.8187 19.8893 20.7271 18.762 21.2945C17.6347 21.8619 16.3572 22.0594 15.1112 21.8589C13.8652 21.6584 12.7142 21.0701 11.8218 20.1777C10.9294 19.2853 10.3412 18.1343 10.1407 16.8883C9.94016 15.6423 10.1377 14.3648 10.7051 13.2375C11.2724 12.1102 12.1808 11.1906 13.301 10.6093C14.4212 10.0281 15.6962 9.81485 16.9446 9.99996C18.2179 10.1888 19.3968 10.7822 20.3071 11.6924C21.2174 12.6027 21.8107 13.7816 21.9996 15.055Z" fill="white" stroke="#1B0202" stroke-width="2" stroke-linecap="round" stroke-linejoin="round"/>
<path d="M24.25 7.75H24.265" stroke="#1B0202" stroke-width="3" stroke-linecap="round" stroke-linejoin="round"/>
</svg>
