<svg width="444" height="58" viewBox="0 0 444 58" fill="none" xmlns="http://www.w3.org/2000/svg">
<path d="M163.944 23.8187C166.131 23.8187 167.911 22.0465 167.911 19.8693C167.911 17.6921 166.131 15.9199 163.944 15.9199C161.757 15.9199 159.976 17.6921 159.976 19.8693C159.976 22.0465 161.757 23.8187 163.944 23.8187ZM180.455 32.5275H165.266L160.383 25.1351L160.333 25.0845C160.282 25.0338 160.282 24.9832 160.231 24.9326C160.18 24.8819 160.129 24.7807 160.027 24.73C159.976 24.6794 159.926 24.6794 159.875 24.6288C159.824 24.5782 159.722 24.5275 159.671 24.4769C159.62 24.4263 159.57 24.4263 159.519 24.3756C159.417 24.325 159.366 24.325 159.264 24.2744C159.213 24.2744 149.804 21.7427 149.804 21.7427C149.244 21.5908 148.583 21.6921 148.125 22.0465L147.362 22.5528H129.661C129.203 22.5528 128.898 22.9073 128.898 23.3123C128.898 23.768 129.254 24.0718 129.661 24.0718H145.073L140.8 27.0085C140.292 27.363 139.987 27.9706 139.936 28.5275H123.303C122.845 28.5275 122.54 28.8819 122.54 29.287C122.54 29.7427 122.896 30.0465 123.303 30.0465H140.444C141.106 30.7554 142.276 30.9073 143.089 30.3503L149.651 25.8946L154.89 27.3123C154.687 27.6161 152.245 30.9579 149.6 34.6035H133.171C132.713 34.6035 132.408 34.9579 132.408 35.363C132.408 35.768 132.764 36.1225 133.171 36.1225H148.481C147.413 37.6414 146.294 39.1098 145.378 40.4263H127.372C126.914 40.4263 126.609 40.7807 126.609 41.1857C126.609 41.5908 126.965 41.9452 127.372 41.9452H144.208C143.089 43.4642 142.377 44.4769 142.377 44.4769L133.374 45.2364C132.255 45.3376 131.39 46.3503 131.492 47.4642C131.594 48.5275 132.51 49.3376 133.527 49.3376C133.578 49.3376 133.629 49.3376 133.73 49.3376L143.598 48.4769C144.158 48.4263 144.666 48.1731 145.022 47.768L150.058 41.844L157.179 46.7047L151.364 55.1857C150.957 56.249 151.517 57.4136 152.585 57.8187C152.839 57.9199 153.043 57.9199 153.297 57.9199C154.162 57.9199 154.925 57.4136 155.23 56.5528L161.757 46.2997C162.062 45.4895 161.808 44.5782 161.146 44.0212L156.009 39.768L160.333 32.4263L162.469 35.7174C162.825 36.2744 163.486 36.6288 164.198 36.6288H180.505C181.624 36.6288 182.54 35.7174 182.54 34.6035C182.489 33.4389 181.574 32.5275 180.455 32.5275Z" fill="white"/>
<path d="M0 3.36H17.22C19.5533 3.36 21.8167 3.61667 24.01 4.13C26.2033 4.59667 28.14 5.39 29.82 6.51C31.5467 7.63 32.9233 9.1 33.95 10.92C34.9767 12.74 35.49 14.9567 35.49 17.57C35.49 21.1633 34.4633 24.1033 32.41 26.39C30.4033 28.63 27.65 30.1467 24.15 30.94L37.38 52.92H26.74L15.26 31.92H8.82V52.92H0V3.36ZM16.03 24.71C17.29 24.71 18.55 24.6167 19.81 24.43C21.07 24.2433 22.19 23.8933 23.17 23.38C24.1967 22.8667 25.0367 22.1433 25.69 21.21C26.3433 20.23 26.67 18.9933 26.67 17.5C26.67 16.1467 26.3667 15.05 25.76 14.21C25.1533 13.3233 24.3833 12.6233 23.45 12.11C22.5167 11.5967 21.4433 11.2467 20.23 11.06C19.0633 10.8733 17.92 10.78 16.8 10.78H8.82V24.71H16.03Z" fill="white"/>
<path d="M77.6431 52.92H69.6631V47.53H69.5231C68.7765 49.21 67.4698 50.7033 65.6031 52.01C63.7831 53.27 61.6131 53.9 59.0931 53.9C56.8998 53.9 55.0098 53.5267 53.4231 52.78C51.8831 51.9867 50.5998 50.96 49.5731 49.7C48.5931 48.44 47.8698 46.9933 47.4031 45.36C46.9365 43.7267 46.7031 42.0467 46.7031 40.32V19.32H55.1031V37.94C55.1031 38.92 55.1731 39.9467 55.3131 41.02C55.4531 42.0933 55.7565 43.0733 56.2231 43.96C56.6898 44.8 57.3198 45.5 58.1131 46.06C58.9531 46.62 60.0498 46.9 61.4031 46.9C62.7098 46.9 63.8531 46.6433 64.8331 46.13C65.8598 45.57 66.6765 44.87 67.2831 44.03C67.9365 43.19 68.4265 42.2333 68.7531 41.16C69.0798 40.04 69.2431 38.92 69.2431 37.8V19.32H77.6431V52.92Z" fill="white"/>
<path d="M91.9253 19.32H99.9053V24.71H100.045C100.792 23.03 102.075 21.56 103.895 20.3C105.762 18.9933 107.955 18.34 110.475 18.34C112.669 18.34 114.535 18.7367 116.075 19.53C117.662 20.2767 118.945 21.28 119.925 22.54C120.952 23.8 121.699 25.2467 122.165 26.88C122.632 28.5133 122.865 30.1933 122.865 31.92V52.92H114.465V34.3C114.465 33.32 114.395 32.2933 114.255 31.22C114.115 30.1467 113.812 29.19 113.345 28.35C112.879 27.4633 112.225 26.74 111.385 26.18C110.592 25.62 109.519 25.34 108.165 25.34C106.812 25.34 105.645 25.62 104.665 26.18C103.685 26.6933 102.869 27.37 102.215 28.21C101.609 29.05 101.142 30.03 100.815 31.15C100.489 32.2233 100.325 33.32 100.325 34.44V52.92H91.9253V19.32Z" fill="white"/>
<path d="M203.928 32.76C203.928 31.6867 203.764 30.66 203.438 29.68C203.158 28.7 202.691 27.8367 202.038 27.09C201.384 26.3433 200.544 25.76 199.518 25.34C198.538 24.8733 197.371 24.64 196.018 24.64C193.497 24.64 191.351 25.41 189.577 26.95C187.851 28.4433 186.894 30.38 186.708 32.76H203.928ZM212.327 36.54C212.327 36.9133 212.327 37.2867 212.327 37.66C212.327 38.0333 212.304 38.4067 212.258 38.78H186.708C186.801 39.9933 187.104 41.1133 187.617 42.14C188.177 43.12 188.901 43.9833 189.788 44.73C190.674 45.43 191.678 45.99 192.798 46.41C193.917 46.83 195.084 47.04 196.298 47.04C198.398 47.04 200.171 46.6667 201.617 45.92C203.064 45.1267 204.254 44.0533 205.188 42.7L210.788 47.18C207.474 51.66 202.668 53.9 196.368 53.9C193.754 53.9 191.351 53.5033 189.158 52.71C186.964 51.87 185.051 50.7033 183.417 49.21C181.831 47.7167 180.571 45.8967 179.637 43.75C178.751 41.5567 178.307 39.0833 178.307 36.33C178.307 33.6233 178.751 31.1733 179.637 28.98C180.571 26.74 181.831 24.85 183.417 23.31C185.004 21.7233 186.871 20.51 189.018 19.67C191.211 18.7833 193.567 18.34 196.087 18.34C198.421 18.34 200.567 18.7367 202.527 19.53C204.534 20.2767 206.261 21.42 207.708 22.96C209.154 24.4533 210.274 26.3433 211.068 28.63C211.908 30.87 212.327 33.5067 212.327 36.54Z" fill="white"/>
<path d="M224.663 19.32H232.713V24.92H232.853C233.786 22.96 235.093 21.3733 236.773 20.16C238.453 18.9467 240.413 18.34 242.653 18.34C242.979 18.34 243.329 18.3633 243.703 18.41C244.076 18.41 244.403 18.4567 244.683 18.55V26.25C244.123 26.11 243.633 26.0167 243.213 25.97C242.839 25.9233 242.466 25.9 242.093 25.9C240.179 25.9 238.639 26.25 237.473 26.95C236.306 27.65 235.396 28.49 234.743 29.47C234.089 30.45 233.646 31.4533 233.413 32.48C233.179 33.5067 233.063 34.3233 233.063 34.93V52.92H224.663V19.32Z" fill="white"/>
<path d="M254.361 19.32H262.411V24.92H262.551C263.484 22.96 264.791 21.3733 266.471 20.16C268.151 18.9467 270.111 18.34 272.351 18.34C272.678 18.34 273.028 18.3633 273.401 18.41C273.774 18.41 274.101 18.4567 274.381 18.55V26.25C273.821 26.11 273.331 26.0167 272.911 25.97C272.538 25.9233 272.164 25.9 271.791 25.9C269.878 25.9 268.338 26.25 267.171 26.95C266.004 27.65 265.094 28.49 264.441 29.47C263.788 30.45 263.344 31.4533 263.111 32.48C262.878 33.5067 262.761 34.3233 262.761 34.93V52.92H254.361V19.32Z" fill="white"/>
<path d="M304.03 48.65H303.82C302.98 50.1433 301.627 51.38 299.76 52.36C297.894 53.2933 295.77 53.76 293.39 53.76C292.037 53.76 290.614 53.5733 289.12 53.2C287.674 52.8733 286.32 52.3133 285.06 51.52C283.847 50.68 282.82 49.6067 281.98 48.3C281.187 46.9467 280.79 45.29 280.79 43.33C280.79 40.81 281.49 38.8033 282.89 37.31C284.337 35.8167 286.18 34.6733 288.42 33.88C290.66 33.0867 293.134 32.5733 295.84 32.34C298.594 32.06 301.277 31.92 303.89 31.92V31.08C303.89 28.98 303.12 27.44 301.58 26.46C300.087 25.4333 298.29 24.92 296.19 24.92C294.417 24.92 292.714 25.2933 291.08 26.04C289.447 26.7867 288.094 27.6967 287.02 28.77L282.68 23.66C284.594 21.8867 286.787 20.5567 289.26 19.67C291.78 18.7833 294.324 18.34 296.89 18.34C299.877 18.34 302.327 18.76 304.24 19.6C306.2 20.44 307.74 21.5367 308.86 22.89C309.98 24.2433 310.75 25.76 311.17 27.44C311.637 29.12 311.87 30.8 311.87 32.48V52.92H304.03V48.65ZM303.89 37.59H302C300.647 37.59 299.224 37.66 297.73 37.8C296.237 37.8933 294.86 38.15 293.6 38.57C292.34 38.9433 291.29 39.5033 290.45 40.25C289.61 40.95 289.19 41.93 289.19 43.19C289.19 43.9833 289.354 44.66 289.68 45.22C290.054 45.7333 290.52 46.1533 291.08 46.48C291.64 46.8067 292.27 47.04 292.97 47.18C293.67 47.32 294.37 47.39 295.07 47.39C297.964 47.39 300.157 46.62 301.65 45.08C303.144 43.54 303.89 41.44 303.89 38.78V37.59Z" fill="white"/>
<path d="M325.857 19.32H333.837V24.71H333.977C334.723 23.03 336.007 21.56 337.827 20.3C339.693 18.9933 341.887 18.34 344.407 18.34C346.6 18.34 348.467 18.7367 350.007 19.53C351.593 20.2767 352.877 21.28 353.857 22.54C354.883 23.8 355.63 25.2467 356.097 26.88C356.563 28.5133 356.797 30.1933 356.797 31.92V52.92H348.397V34.3C348.397 33.32 348.327 32.2933 348.187 31.22C348.047 30.1467 347.743 29.19 347.277 28.35C346.81 27.4633 346.157 26.74 345.317 26.18C344.523 25.62 343.45 25.34 342.097 25.34C340.743 25.34 339.577 25.62 338.597 26.18C337.617 26.6933 336.8 27.37 336.147 28.21C335.54 29.05 335.073 30.03 334.747 31.15C334.42 32.2233 334.257 33.32 334.257 34.44V52.92H325.857V19.32Z" fill="white"/>
<path d="M404.959 52.92H396.979V47.88H396.839C395.672 49.84 394.039 51.3333 391.939 52.36C389.885 53.3867 387.669 53.9 385.289 53.9C382.722 53.9 380.412 53.4333 378.359 52.5C376.352 51.52 374.625 50.2367 373.179 48.65C371.779 47.0167 370.682 45.1267 369.889 42.98C369.142 40.7867 368.769 38.4533 368.769 35.98C368.769 33.5067 369.165 31.1967 369.959 29.05C370.752 26.9033 371.872 25.0367 373.319 23.45C374.765 21.8633 376.492 20.6267 378.499 19.74C380.505 18.8067 382.699 18.34 385.079 18.34C386.619 18.34 387.995 18.5267 389.209 18.9C390.422 19.2267 391.472 19.6467 392.359 20.16C393.292 20.6733 394.085 21.2333 394.739 21.84C395.392 22.4467 395.929 23.03 396.349 23.59H396.559V0H404.959V52.92ZM377.309 35.98C377.309 37.2867 377.495 38.5933 377.869 39.9C378.289 41.2067 378.895 42.3733 379.689 43.4C380.482 44.4267 381.485 45.2667 382.699 45.92C383.912 46.5733 385.335 46.9 386.969 46.9C388.509 46.9 389.885 46.5967 391.099 45.99C392.312 45.3367 393.339 44.4967 394.179 43.47C395.065 42.4433 395.719 41.3 396.139 40.04C396.605 38.7333 396.839 37.4267 396.839 36.12C396.839 34.8133 396.605 33.5067 396.139 32.2C395.719 30.8933 395.065 29.7267 394.179 28.7C393.339 27.6733 392.312 26.8333 391.099 26.18C389.885 25.5267 388.509 25.2 386.969 25.2C385.335 25.2 383.912 25.5267 382.699 26.18C381.485 26.7867 380.482 27.6033 379.689 28.63C378.895 29.6567 378.289 30.8233 377.869 32.13C377.495 33.39 377.309 34.6733 377.309 35.98Z" fill="white"/>
<path d="M437.774 28.28C437.027 27.3 436.001 26.46 434.694 25.76C433.387 25.0133 431.964 24.64 430.424 24.64C429.071 24.64 427.834 24.92 426.714 25.48C425.594 26.04 425.034 26.9733 425.034 28.28C425.034 29.5867 425.641 30.52 426.854 31.08C428.114 31.5933 429.934 32.13 432.314 32.69C433.574 32.97 434.834 33.3433 436.094 33.81C437.401 34.2767 438.567 34.9067 439.594 35.7C440.667 36.4467 441.531 37.4033 442.184 38.57C442.837 39.69 443.164 41.0667 443.164 42.7C443.164 44.7533 442.767 46.5033 441.974 47.95C441.227 49.35 440.201 50.4933 438.894 51.38C437.634 52.2667 436.141 52.8967 434.414 53.27C432.734 53.69 430.984 53.9 429.164 53.9C426.551 53.9 424.007 53.4333 421.534 52.5C419.061 51.52 417.007 50.1433 415.374 48.37L420.904 43.19C421.837 44.4033 423.051 45.4067 424.544 46.2C426.037 46.9933 427.694 47.39 429.514 47.39C430.121 47.39 430.727 47.32 431.334 47.18C431.987 47.04 432.571 46.83 433.084 46.55C433.644 46.2233 434.087 45.8033 434.414 45.29C434.741 44.7767 434.904 44.1467 434.904 43.4C434.904 42 434.251 40.9967 432.944 40.39C431.684 39.7833 429.771 39.1767 427.204 38.57C425.944 38.29 424.707 37.94 423.494 37.52C422.327 37.0533 421.277 36.47 420.344 35.77C419.411 35.0233 418.664 34.1133 418.104 33.04C417.544 31.9667 417.264 30.6367 417.264 29.05C417.264 27.1833 417.637 25.5733 418.384 24.22C419.177 22.8667 420.204 21.77 421.464 20.93C422.724 20.0433 424.147 19.39 425.734 18.97C427.321 18.55 428.954 18.34 430.634 18.34C433.061 18.34 435.417 18.76 437.704 19.6C440.037 20.44 441.881 21.7233 443.234 23.45L437.774 28.28Z" fill="white"/>
</svg>
