<svg width="39" height="32" viewBox="0 0 39 32" fill="none" xmlns="http://www.w3.org/2000/svg">
<path d="M37.7817 1.01681C36.1807 2.14614 34.408 3.0099 32.532 3.57482C31.5251 2.41704 30.1869 1.59645 28.6984 1.224C27.2099 0.851562 25.6429 0.945248 24.2094 1.49239C22.7759 2.03953 21.545 3.01373 20.6832 4.28323C19.8214 5.55272 19.3703 7.05627 19.3909 8.59051V10.2624C16.4527 10.3386 13.5414 9.68696 10.916 8.36555C8.29072 7.04414 6.03294 5.09396 4.3438 2.68871C4.3438 2.68871 -2.3438 17.7358 12.7033 24.4234C9.26006 26.7606 5.15827 27.9326 1 27.7672C16.0471 36.1267 34.438 27.7672 34.438 8.54035C34.4364 8.07465 34.3916 7.6101 34.3042 7.15268C36.0105 5.4699 37.2147 3.34529 37.7817 1.01681Z" fill="white" stroke="white" stroke-width="2" stroke-linecap="round" stroke-linejoin="round"/>
</svg>
