<svg width="37" height="35" viewBox="0 0 37 35" fill="none" xmlns="http://www.w3.org/2000/svg">
<path fill-rule="evenodd" clip-rule="evenodd" d="M21.394 19.5908L34.7903 23.6363L30.9233 25.8635L36.9999 31.909L33.8696 34.9999L27.7469 28.9999L25.4912 32.8181L21.394 19.5908Z" fill="white"/>
<path d="M17.4811 0C27.0564 0 34.9745 7.63636 34.9745 17.2727C34.9745 18.8636 34.7443 20.4091 34.376 21.8636L32.4425 21.2727C32.7187 20.2727 32.9029 19.2727 32.9489 18.2273H27.7009C27.6549 18.7727 27.6088 19.2727 27.5168 19.7727L25.6293 19.1818C25.6754 18.8636 25.6754 18.5455 25.7214 18.2273H22.4989L18.9542 17.1818L19.2765 18.2273H18.4939V22.9091C19.2765 22.9545 20.0591 23.0455 20.7956 23.1818L21.4862 25.3182C20.5194 25.0909 19.5067 24.9091 18.4939 24.8636V32C19.8289 30.6818 21.1179 29.2273 22.2227 27.6818L22.9133 30C22.3608 30.7727 21.7163 31.5 21.0719 32.1818C21.8545 32 22.6371 31.7273 23.3736 31.4545L23.926 33.2727C17.9415 35.6818 10.6219 34.9091 5.1437 29.5C-5.85869 18.6364 1.96728 0 17.4811 0ZM21.0719 2.36364C22.6831 4.09091 24.1102 6 25.2611 8.04545C26.2738 7.5 27.1945 6.81818 28.0232 6.04545C26.0897 4.22727 23.6959 2.95455 21.0719 2.36364ZM18.4939 2.5V10.0909C20.2432 10 21.9465 9.59091 23.4657 8.95455C22.1767 6.54545 20.4274 4.40909 18.4939 2.5ZM27.7009 16.2727H32.9489C32.7648 13.0455 31.5218 9.95455 29.4042 7.45455C28.3914 8.36364 27.2866 9.18182 26.1357 9.81818C27.0104 11.8636 27.5628 14.0909 27.7009 16.2727ZM24.3404 10.6818C22.545 11.4545 20.5655 11.9545 18.4939 12.0455V16.2727H25.7214C25.5833 14.3636 25.0769 12.4545 24.3404 10.6818ZM13.8904 32.1818C12.2791 30.4545 10.9441 28.6364 9.88532 26.7727C8.91858 27.3182 7.99788 27.9545 7.16925 28.6818C9.05669 30.3636 11.3584 31.5909 13.8904 32.1818ZM9.01065 25.0455C7.99788 22.8182 7.39942 20.5455 7.30735 18.2273H2.01331C2.24349 21.7273 3.62454 24.8636 5.78819 27.3182C6.75493 26.4545 7.85978 25.6818 9.01065 25.0455ZM7.30735 16.2727C7.39942 14.1364 7.95185 11.9545 8.87255 9.81818C7.67563 9.18182 6.57079 8.36364 5.60405 7.45455C3.53247 9.86364 2.24349 12.9545 2.01331 16.2727H7.30735ZM9.74722 8.04545C10.806 6.09091 12.1871 4.18182 13.8904 2.36364C11.2664 3 8.87255 4.27273 6.93907 6.04545C7.7677 6.81818 8.73444 7.5 9.74722 8.04545ZM16.5144 2.5C14.4888 4.5 12.7395 6.63636 11.4965 8.95455C13.0617 9.59091 14.719 10 16.5144 10.0909V2.5ZM10.6219 10.6818C9.83928 12.5455 9.37893 14.4091 9.28686 16.2727H16.5144V12.0455C14.4428 11.9545 12.4633 11.4545 10.6219 10.6818ZM9.28686 18.2273C9.37893 20.2273 9.88532 22.2273 10.806 24.1818C12.5554 23.4545 14.4888 23 16.5144 22.9091V18.2273H9.28686ZM11.6807 25.9091C12.9236 28.1364 14.5809 30.1364 16.5144 32V24.8636C14.8111 24.9545 13.1998 25.3182 11.6807 25.9091Z" fill="white"/>
</svg>
